<?xml version="1.0" encoding="utf-8"?>
<!-- Generator: Adobe Illustrator 23.0.1, SVG Export Plug-In . SVG Version: 6.00 Build 0)  -->
<svg version="1.1" id="Capa_1" xmlns="http://www.w3.org/2000/svg" xmlns:xlink="http://www.w3.org/1999/xlink" x="0px" y="0px"
	 viewBox="0 0 24 24" style="enable-background:new 0 0 24 24;" xml:space="preserve">
<g>
	<g>
		<circle cx="-324.4" cy="44.1" r="3.6"/>
	</g>
</g>
<g>
	<g>
		<circle cx="-330.1" cy="82" r="3.6"/>
	</g>
</g>
<g>
	<g>
		<circle cx="-347" cy="65.1" r="3.6"/>
	</g>
</g>
<g>
	<g>
		<circle cx="-313.2" cy="65.1" r="3.6"/>
	</g>
</g>
<g>
	<g>
		<circle cx="-330.1" cy="65.1" r="5.6"/>
	</g>
</g>
<g>
	<g>
		<path d="M-217.4,182.9l-14.8-37.4c-1.5-3.6-4.1-6.1-7.2-7.2c-2.6-1-5.1-1-7.7-1c-97.3-219.1-261.1-318.5-262.7-319.5
			c-2.6-1.5-5.6-0.5-7.2,1.5c-1.5,2.6-0.5,5.6,1.5,7.2c0.5,0,5.1,3.1,12.8,8.7c-14.3,6.7-50.7,26.6-64.5,64.5
			c-9.7,27.1-5.1,57.9,13.3,90.6c57.9,100.9,3.6,150.5,1,153.1l-2-10.8c-0.5-2.6-3.1-4.6-6.1-4.1c-2.6,0.5-4.6,3.1-4.1,6.1l3.6,18.4
			l-11.8,13.3c-4.1,5.1-6.7,11.3-6.1,17.4c0.5,6.7,3.1,12.3,8.2,16.9c4.6,4.1,10.2,6.1,16.4,6.1c6.7,0,13.3-2.6,18.4-8.2
			c2-2,1.5-5.1-0.5-7.2c-2-2-5.1-1.5-7.2,0.5c-5.1,5.6-14.3,6.1-20,1c-3.1-2.6-4.6-6.1-4.6-9.7c0-3.6,1-7.2,3.6-10.2l11.3-12.8
			l21-4.1c2.6-0.5,4.6-3.1,4.1-6.1c-0.5-2.6-3.1-4.6-6.1-4.1l-6.7,2c5.1-5.6,15.4-18.4,21-38.9c7.2-25.1,9.2-67.1-23.6-123.4
			c-17.4-30.2-21.5-57.9-12.8-81.9c14.8-42,63.5-60.9,64-60.9c0,0,0,0,0.5,0c36.4,26.6,110.6,88.6,176.6,190
			c-4.6-2-9.2-3.1-14.3-3.1c-19.5,0-35.8,15.9-35.8,35.8s15.9,35.8,35.8,35.8c18.9,0,34.8-14.8,35.3-33.8
			c13.3,23,26.1,48.1,37.9,74.2c-5.1,3.6-7.7,10.8-5.1,16.4l15.9,37.4c1.5,3.6,4.1,6.1,7.2,7.2c1.5,0.5,3.6,1,5.1,1s3.6-0.5,5.1-1
			l4.1-2C-217.4,197.7-214.4,190-217.4,182.9z M-330.1,90.7c-13.8,0-25.6-11.3-25.6-25.6c0-13.8,11.3-25.6,25.6-25.6
			c13.8,0,25.6,11.3,25.6,25.6C-304.5,78.9-316.2,90.7-330.1,90.7z M-227.7,191.1l-4.1,2c-1,0.5-1.5,0.5-2.6,0s-1.5-1-2-2
			l-15.9-37.4c-0.5-1.5,0-3.6,2-4.6l4.1-2c0.5,0,1-0.5,1.5-0.5c0.5,0,1,0,1.5,0c1,0.5,1.5,1,2,2l15.9,37.4
			C-225.1,188.5-226.1,190.5-227.7,191.1z"/>
	</g>
</g>
<g>
	<g>
		<circle cx="16.2" cy="13.9" r="0.2"/>
	</g>
</g>
<g>
	<g>
		<circle cx="15.9" cy="16" r="0.2"/>
	</g>
</g>
<g>
	<g>
		<circle cx="14.9" cy="15.1" r="0.2"/>
	</g>
</g>
<g>
	<g>
		<circle cx="16.9" cy="15.1" r="0.2"/>
	</g>
</g>
<g>
	<g>
		<circle cx="15.9" cy="15.1" r="0.3"/>
	</g>
</g>
<g>
	<g>
		<path d="M22.4,21.9l-0.9-2.2c-0.1-0.2-0.2-0.4-0.4-0.4c-0.1-0.1-0.3-0.1-0.4-0.1C15.1,6.6,5.6,0.8,5.5,0.8c-0.1-0.1-0.3,0-0.4,0.1
			C5,1,5.1,1.2,5.2,1.3c0,0,0.3,0.2,0.7,0.5C5.1,2.2,3,3.3,2.2,5.5C1.7,7.1,1.9,8.9,3,10.7c3.3,5.8,0.2,8.7,0.1,8.9L2.9,19
			c0-0.1-0.2-0.3-0.4-0.2c-0.1,0-0.3,0.2-0.2,0.4l0.2,1.1l-0.7,0.8c-0.2,0.3-0.4,0.7-0.4,1c0,0.4,0.2,0.7,0.5,1
			c0.3,0.2,0.6,0.4,0.9,0.4c0.4,0,0.8-0.1,1.1-0.5c0.1-0.1,0.1-0.3,0-0.4c-0.1-0.1-0.3-0.1-0.4,0c-0.3,0.3-0.8,0.4-1.2,0.1
			c-0.2-0.1-0.3-0.4-0.3-0.6c0-0.2,0.1-0.4,0.2-0.6L3,20.6l1.2-0.2c0.1,0,0.3-0.2,0.2-0.4c0-0.1-0.2-0.3-0.4-0.2l-0.4,0.1
			c0.3-0.3,0.9-1.1,1.2-2.2c0.4-1.5,0.5-3.9-1.4-7.1c-1-1.7-1.2-3.3-0.7-4.7c0.9-2.4,3.7-3.5,3.7-3.5c0,0,0,0,0,0
			c2.1,1.5,6.4,5.1,10.2,11c-0.3-0.1-0.5-0.2-0.8-0.2c-1.1,0-2.1,0.9-2.1,2.1s0.9,2.1,2.1,2.1c1.1,0,2-0.9,2-2
			c0.8,1.3,1.5,2.8,2.2,4.3c-0.3,0.2-0.4,0.6-0.3,0.9l0.9,2.2c0.1,0.2,0.2,0.4,0.4,0.4c0.1,0,0.2,0.1,0.3,0.1c0.1,0,0.2,0,0.3-0.1
			l0.2-0.1C22.4,22.7,22.6,22.3,22.4,21.9z M15.9,16.6c-0.8,0-1.5-0.7-1.5-1.5c0-0.8,0.7-1.5,1.5-1.5c0.8,0,1.5,0.7,1.5,1.5
			C17.4,15.9,16.7,16.6,15.9,16.6z M21.8,22.4l-0.2,0.1c-0.1,0-0.1,0-0.1,0c-0.1,0-0.1-0.1-0.1-0.1l-0.9-2.2c0-0.1,0-0.2,0.1-0.3
			l0.2-0.1c0,0,0.1,0,0.1,0c0,0,0.1,0,0.1,0c0.1,0,0.1,0.1,0.1,0.1l0.9,2.2C22,22.2,21.9,22.3,21.8,22.4z"/>
	</g>
</g>
</svg>
