<?xml version="1.0" encoding="iso-8859-1"?>
<!-- Generator: Adobe Illustrator 19.0.0, SVG Export Plug-In . SVG Version: 6.00 Build 0)  -->
<svg version="1.1" id="Capa_1" xmlns="http://www.w3.org/2000/svg" xmlns:xlink="http://www.w3.org/1999/xlink" x="0px" y="0px"
	 viewBox="0 0 389.86 389.86" style="enable-background:new 0 0 389.86 389.86;" xml:space="preserve">
<g>
	<g>
		<circle cx="262.721" cy="230.628" r="3.584"/>
	</g>
</g>
<g>
	<g>
		<circle cx="262.721" cy="264.932" r="3.584"/>
	</g>
</g>
<g>
	<g>
		<circle cx="245.825" cy="248.036" r="3.584"/>
	</g>
</g>
<g>
	<g>
		<circle cx="279.617" cy="248.036" r="3.584"/>
	</g>
</g>
<g>
	<g>
		<circle cx="262.721" cy="248.036" r="5.632"/>
	</g>
</g>
<g>
	<g>
		<path d="M375.361,365.796l-14.848-37.376c-1.536-3.584-4.096-6.144-7.168-7.168c-2.56-1.024-5.12-1.024-7.68-1.024
			C248.385,101.092,84.545,1.764,83.009,0.74c-2.56-1.536-5.632-0.512-7.168,1.536c-1.536,2.56-0.512,5.632,1.536,7.168
			c0.512,0,5.12,3.072,12.8,8.704C75.841,24.804,39.489,44.772,25.665,82.66c-9.728,27.136-5.12,57.856,13.312,90.624
			c57.856,100.864,3.584,150.528,1.024,153.088l-2.048-10.752c-0.512-2.56-3.072-4.608-6.144-4.096
			c-2.56,0.512-4.608,3.072-4.096,6.144l3.584,18.432l-11.776,13.312c-4.096,5.12-6.656,11.264-6.144,17.408
			c0.512,6.656,3.072,12.288,8.192,16.896c4.608,4.096,10.24,6.144,16.384,6.144c6.656,0,13.312-2.56,18.432-8.192
			c2.048-2.048,1.536-5.12-0.512-7.168c-2.048-2.048-5.12-1.536-7.168,0.512c-5.12,5.632-14.336,6.144-19.968,1.024
			c-3.072-2.56-4.608-6.144-4.608-9.728c0-3.584,1.024-7.168,3.584-10.24l11.264-12.8l20.992-4.096
			c2.56-0.512,4.608-3.072,4.096-6.144c-0.512-2.56-3.072-4.608-6.144-4.096l-6.656,2.048c5.12-5.632,15.36-18.432,20.992-38.912
			c7.168-25.088,9.216-67.072-23.552-123.392c-17.408-30.208-21.504-57.856-12.8-81.92c14.848-41.984,63.488-60.928,64-60.928
			c0,0,0,0,0.512,0c36.352,26.624,110.592,88.576,176.64,189.952c-4.608-2.048-9.216-3.072-14.336-3.072
			c-19.456,0-35.84,15.872-35.84,35.84s15.872,35.84,35.84,35.84c18.944,0,34.816-14.848,35.328-33.792
			c13.312,23.04,26.112,48.128,37.888,74.24c-5.12,3.584-7.68,10.752-5.12,16.384l15.872,37.376
			c1.536,3.584,4.096,6.144,7.168,7.168c1.536,0.512,3.584,1.024,5.12,1.024s3.584-0.512,5.12-1.024l4.096-2.048
			C375.361,380.644,378.433,372.964,375.361,365.796z M262.721,273.636c-13.824,0-25.6-11.264-25.6-25.6
			c0-13.824,11.264-25.6,25.6-25.6c13.824,0,25.6,11.264,25.6,25.6C288.321,261.86,276.545,273.636,262.721,273.636z
			 M365.121,373.988l-4.096,2.048c-1.024,0.512-1.536,0.512-2.56,0c-1.024-0.512-1.536-1.024-2.048-2.048l-15.872-37.376
			c-0.512-1.536,0-3.584,2.048-4.608l4.096-2.048c0.512,0,1.024-0.512,1.536-0.512c0.512,0,1.024,0,1.536,0
			c1.024,0.512,1.536,1.024,2.048,2.048l15.872,37.376C367.681,371.428,366.657,373.476,365.121,373.988z"/>
	</g>
</g>
<g>
</g>
<g>
</g>
<g>
</g>
<g>
</g>
<g>
</g>
<g>
</g>
<g>
</g>
<g>
</g>
<g>
</g>
<g>
</g>
<g>
</g>
<g>
</g>
<g>
</g>
<g>
</g>
<g>
</g>
</svg>
