<?xml version="1.0" encoding="utf-8"?>
<!-- Generator: Adobe Illustrator 23.0.1, SVG Export Plug-In . SVG Version: 6.00 Build 0)  -->
<svg version="1.1" id="Capa_1" xmlns="http://www.w3.org/2000/svg" xmlns:xlink="http://www.w3.org/1999/xlink" x="0px" y="0px"
	 viewBox="0 0 389.9 389.9" style="enable-background:new 0 0 389.9 389.9;" xml:space="preserve">
<g>
	<g>
		<circle cx="262.7" cy="230.6" r="3.6"/>
	</g>
</g>
<g>
	<g>
		<circle cx="262.7" cy="264.9" r="3.6"/>
	</g>
</g>
<g>
	<g>
		<circle cx="245.8" cy="248" r="3.6"/>
	</g>
</g>
<g>
	<g>
		<circle cx="279.6" cy="248" r="3.6"/>
	</g>
</g>
<g>
	<g>
		<circle cx="262.7" cy="248" r="5.6"/>
	</g>
</g>
<g>
	<g>
		<path d="M375.4,365.8l-14.8-37.4c-1.5-3.6-4.1-6.1-7.2-7.2c-2.6-1-5.1-1-7.7-1C248.4,101.1,84.5,1.8,83,0.7
			c-2.6-1.5-5.6-0.5-7.2,1.5c-1.5,2.6-0.5,5.6,1.5,7.2c0.5,0,5.1,3.1,12.8,8.7c-14.3,6.7-50.7,26.6-64.5,64.5
			c-9.7,27.1-5.1,57.9,13.3,90.6c57.9,100.9,3.6,150.5,1,153.1l-2-10.8c-0.5-2.6-3.1-4.6-6.1-4.1c-2.6,0.5-4.6,3.1-4.1,6.1l3.6,18.4
			l-11.8,13.3c-4.1,5.1-6.7,11.3-6.1,17.4c0.5,6.7,3.1,12.3,8.2,16.9c4.6,4.1,10.2,6.1,16.4,6.1c6.7,0,13.3-2.6,18.4-8.2
			c2-2,1.5-5.1-0.5-7.2s-5.1-1.5-7.2,0.5c-5.1,5.6-14.3,6.1-20,1c-3.1-2.6-4.6-6.1-4.6-9.7c0-3.6,1-7.2,3.6-10.2L39,343.3l21-4.1
			c2.6-0.5,4.6-3.1,4.1-6.1c-0.5-2.6-3.1-4.6-6.1-4.1l-6.7,2c5.1-5.6,15.4-18.4,21-38.9c7.2-25.1,9.2-67.1-23.6-123.4
			c-17.4-30.2-21.5-57.9-12.8-81.9c14.8-42,63.5-60.9,64-60.9c0,0,0,0,0.5,0c36.4,26.6,110.6,88.6,176.6,190
			c-4.6-2-9.2-3.1-14.3-3.1c-19.5,0-35.8,15.9-35.8,35.8s15.9,35.8,35.8,35.8c18.9,0,34.8-14.8,35.3-33.8
			c13.3,23,26.1,48.1,37.9,74.2c-5.1,3.6-7.7,10.8-5.1,16.4l15.9,37.4c1.5,3.6,4.1,6.1,7.2,7.2c1.5,0.5,3.6,1,5.1,1s3.6-0.5,5.1-1
			l4.1-2C375.4,380.6,378.4,373,375.4,365.8z M262.7,273.6c-13.8,0-25.6-11.3-25.6-25.6c0-13.8,11.3-25.6,25.6-25.6
			c13.8,0,25.6,11.3,25.6,25.6C288.3,261.9,276.5,273.6,262.7,273.6z M365.1,374l-4.1,2c-1,0.5-1.5,0.5-2.6,0s-1.5-1-2-2l-15.9-37.4
			c-0.5-1.5,0-3.6,2-4.6l4.1-2c0.5,0,1-0.5,1.5-0.5c0.5,0,1,0,1.5,0c1,0.5,1.5,1,2,2l15.9,37.4C367.7,371.4,366.7,373.5,365.1,374z"
			/>
	</g>
</g>
</svg>
