<?xml version="1.0" encoding="utf-8"?>
<!-- Generator: Adobe Illustrator 23.0.1, SVG Export Plug-In . SVG Version: 6.00 Build 0)  -->
<svg version="1.1" id="Layer_1" xmlns="http://www.w3.org/2000/svg" xmlns:xlink="http://www.w3.org/1999/xlink" x="0px" y="0px"
	 viewBox="0 0 228.4 228.4" style="enable-background:new 0 0 228.4 228.4;" xml:space="preserve">
<style type="text/css">
	.st0{fill:#FFFEF0;}
	.st1{fill:#9BBE4A;}
	.st2{fill:#5E7032;}
	.st3{fill:#5E7031;}
	.st4{fill:#5F7032;}
	.st5{fill:#5F7132;}
	.st6{fill:#DCB66A;}
	.st7{fill:#848484;}
	.st8{fill:#707071;}
	.st9{fill:#7F7F7F;}
	.st10{fill:#7D7D7D;}
	.st11{fill:#757576;}
	.st12{fill:#737474;}
</style>
<circle class="st0" cx="111.3" cy="114.2" r="114.2"/>
<title>Artboard 3</title>
<path class="st1" d="M112.5,184.5c-32.1-0.2-61.1-19.7-73-48.7c-0.6-1.4-0.9-2.9-1.5-4.2c-1-2,0.3-2.7,1.7-3.4c2-1,2.1,0.8,2.6,1.9
	c3.8,10.7,10,20.4,18.1,28.3C97.8,195.3,160.9,182.6,181,134c0.4-1.3,0.9-2.5,1.5-3.7c0.9-1.4,2.2-2.1,3.6-1.6
	c1.1,0.4,0.8,2.4,0.4,3.5c-8.8,27.1-36.5,49.1-64.8,51.5C118.4,184,115.1,184.9,112.5,184.5z"/>
<path class="st1" d="M190,91.8c-9.2-52.6-67.6-80.9-114.7-55.7C61,43.7,50.5,55,42.4,68.6c-3.1,5.3-5.2,11.2-6.1,17.3
	c-0.2,1.2-1.2,2.5,0.1,3.7l0,0c1.6,0.8,2.5,0.7,3,0.3c0.3-0.4,1-4.6,1.5-6.4c2.8-10.6,8.3-20.3,16-28.2c8.6-8.9,10.2-9.6,15.6-13.1
	c29.3-19.1,72.9-13.4,95.1,13.8c8.6,9.3,14.2,22.7,17.1,34.8c0.6,2.7,0.7,5.1,4,5.6C192,96,190.2,93.4,190,91.8z"/>
<path class="st2" d="M59.8,94.7c-2.4,3.6-4,3.4-7.1,2.1c-2.2-1.1-4.2-2.4-6-4c0.9-2.1,1.1-3.2,1.9-4.8c0.2-0.3-0.8-0.5-2.4-0.9
	C47.2,85.1,56,66,57,66c0.3,0,8.4,17.4,11,21.4c-1.4,0-1.1,0-2.8,0c0.7,1.3,0.6,1.8,2,5C64.7,92,60.8,93.3,59.8,94.7z"/>
<path class="st3" d="M169.5,92.3c-4.4-0.5-12.3-0.1-16.4-0.1c-0.1,0-0.1,0-0.1-0.1V92c1.2-1.8,2.3-3.6,3.3-5.5l0,0
	c-1.6,0-2.2-0.1-3.9-0.1l0,0c6.8-14.1,12.8-26,13.1-26c1.4,2.5,9.5,19.9,12.2,25.9c-1,0.1-1.9,0.2-2.9,0.2c-0.1,0-0.1,0.1-0.1,0.1
	l0,0c0.3,0.9,2.3,4.5,3.2,6.4c0.1,0.3,0.1,0.3-0.1,0.2C174.7,92.9,174.4,92.9,169.5,92.3z"/>
<path class="st4" d="M73.5,94.1c0.5-0.8,1-1.8,2.1-3.6c-1,0-1.3,0-2.2,0c0,0-0.1,0-0.1-0.1l0,0c3.4-7.5,6-12.1,8.6-17.5
	c2.6,6.3,4.3,9.2,8.4,17.7c-1.7,0-2.3-0.1-2.2,0.3c0.6,1.4,1.3,2.5,2.1,4.4v0.1l0,0c-3.6,0-9,0.7-12.3,0.9c-0.7,0-2.6-1.2-4.1-1.8
	C73.7,94.5,73.5,94.1,73.5,94.1z"/>
<path class="st5" d="M142.3,73.6c2.4,4.9,3,6,7.1,15l0,0c-0.6,0-1,0-2.2,0l0,0c1,1.9,1.1,2.1,2.3,3.9l0,0h-15.2
	c0.2-0.4,1.3-2.6,2-4.1h-1.6c3.9-8.4,4.5-9.9,6.8-14.9C141.8,72.8,142,72.8,142.3,73.6z"/>
<path class="st6" d="M136,47.4c-1.5,1.1-3.1,2.5-3.7-0.7C133.7,46.6,135,46.2,136,47.4z M136.6,43.3c-1.3-1.4-3.5-1.5-4.9-0.3
	c-2.1,1.7-2.3,3.8-0.4,5.9c1.6,2.1,3.4,2,5.2,0.2l0,0C138.7,47.2,138.6,45.2,136.6,43.3z"/>
<path class="st6" d="M92.2,48.5l-3.8-0.1c-0.1-1.6,0.9-1.9,2.2-1.8C91.9,46.7,92.2,47.3,92.2,48.5z M93.2,43.4c-1.6-1.9-4-1.8-5.7,0
	c-2,2.1-2,4.4,0.8,6.1c1.2,0.9,2.8,0.9,4,0l0,0C95.1,47.9,95,45.5,93.2,43.4L93.2,43.4z"/>
<path class="st6" d="M114.1,43.6c-1.3,0.2-2.7-0.1-3.8-1c0.5-1.2,1.4-1.8,2.7-1.4C114.2,41.6,114.3,42.5,114.1,43.6z M114.7,37.7
	c-1.9-1.5-3.8-0.9-5.2,0.8c-1.7,2-1.6,3.9,0.7,5.4c1.8,1.4,3.5,1.4,5.1-0.3l0,0C117.2,41.5,116.9,39.4,114.7,37.7L114.7,37.7z"/>
<path class="st7" d="M85.4,114.6c-0.1,1.1-0.6,1.7-1.5,1.8c-0.8,0.2-1.6-0.3-1.8-1.1v-0.1c-0.1-0.9,0.6-1.4,1.6-1.5
	S85.3,113.6,85.4,114.6z"/>
<path class="st8" d="M49.3,116.1c0.1,0.8-0.5,1.5-1.3,1.5h-0.1c-0.9,0.1-1.6-0.2-1.7-1.2c0-0.8,0.6-1.5,1.4-1.6
	c0.7-0.2,1.4,0.2,1.6,0.9C49.2,115.9,49.3,116,49.3,116.1z"/>
<path class="st9" d="M81.9,106c-0.5,0.9-1.1,1.8-2.2,1.3c-0.5-0.2-1.2-1-1.1-1.3c0.3-1,1.3-1.6,2.3-1.4c0.6,0,1.1,0.6,1.1,1.2
	C82,105.9,82,106,81.9,106z"/>
<path class="st10" d="M157.3,102.4c0.2-0.8,1-1.3,1.8-1.3c1,0,1.4,0.7,1.1,1.6s-1.1,1.1-1.9,0.9
	C157.7,103.6,157.2,103.1,157.3,102.4C157.3,102.6,157.3,102.5,157.3,102.4z"/>
<path class="st11" d="M174.3,113c0-1.1,0.2-2.3,0.6-3.3c0.5-1.3,1.2-2.6,2-3.8c-1.4,5.4-1.8,5.2-1.6,7.5s1,4.4,2.3,6.3
	c0.8,0.7,3.6,1.3,5.8,1.3c-0.1-1.6,0.4-2.6-0.9-5.5c0,0-2-2.3-0.7-6.5c0.9,5.5,3.2,6.2,3.7,8.4c-0.1,5,0.1,5-0.2,5
	c-1.4,0-2.8,0-4.2-0.2c-2.3,0-4.4-1.4-5.3-3.6C174.7,117,174.3,115,174.3,113z"/>
<path class="st12" d="M193.5,106.2c0-0.9-0.1-1.6-1.4-1.6s-3.1,0.9-3.1,1.8c0.2,1.3,1.1,2.3,2.4,2.5
	C192.7,108.9,193.5,107,193.5,106.2z"/>
<path class="st8" d="M150.2,124.7c-13.3,6.1-61-2.8-75.4-7.3c0-0.3,0.4,0,2.2,0.3c27.4,4.9,56.3,9.5,71.1,7.6L150.2,124.7z"/>
<path class="st10" d="M187.4,107.8c2.8,3,5.2,2,6.9,0.7c-2,0.2-4.2,1.1-6.6-0.8C187.4,107.4,187.1,107.4,187.4,107.8z"/>
<path class="st8" d="M207,113.4c-2.3,0.2-5.4,0.3-6.6,0.3c-0.5,0-0.3-0.6,0-0.9s4.1-3.1,6.2-4.6c0.3-0.2,0.4-0.6,0.2-0.9
	c-4.4-4.1-9.8-6.9-15.7-8.1h0c-1.7-0.7-3.4-1.2-5.2-1.6h-0.1c-3.8-1.7-14.3-2.7-16.4-3c-4.9-0.8-15.4-0.3-24.8-0.4
	c-6.4-0.1-14.5,0.6-22.6,0.6c-1.8-0.1-11-9.5-13.7-12c-0.7-0.7-1.8-1.3-2-0.5c-0.7,2.6-7,9-9.9,12.5c-0.2,0.2-0.2,0.5-0.3,0.8
	c0,0.7-0.1,1.5-0.9,1.5c-8.1,0-13.5,2.2-18.4,2.1c-0.7-0.2-1.4-0.5-2-1c-3.1-2.2-6.9-3.4-10.8-3.3c-1.2,0-2.6,1-4.3,4
	c-1.5,3.2-4.6,1.4-5.7,1c-1.9-0.7-21-8.9-22.5-9.7c-5.1-2.4-10.4-4.4-15.8-6c-1.4-0.4-3.4-0.9-4.5,0.4c-1,1.1,0,2.6,0.5,3.7
	c2.4,5.1,4.5,10.6,7.3,15.6c2.3,4.1,2.3,7.7-0.3,11.5l0,0C16,119,8,131.6,9.2,135.5c0.2,0.7,2,0.4,3.8,0.5c6,0.3,10.4-2.3,20.9-7.3
	c3.1-1.8,12.7-7,16-8.3c6.2-2.4,9.3-2.4,16-0.6c0.5,0.1-1.5,0.6-2.3,1s-0.9,1.8,0.2,2.7c2.9,3.9,6.2,7.4,5,12.5
	c-0.4,1.7,1.6,2.3,2.7,1.5c2.9-1.8,10.8-10.1,11.6-11.9c0.2-0.5,1-0.5,1-0.5c3.3,0.3,11.5,4.4,18.8,6.1c3.9,1.5,3.4,2.4,5.2,6.3
	c1.2,2.8,2.4,6,5.4,7.8c0.6,0.3,2.3,0.9,7.5-8.6c0.7-1,2.1-2.5,3.6-2.4c6.4,0.2,17.6,0.5,23.7,0.4c1.5,0-1.6,2.3-2.7,3.3
	c-0.2,0.3-0.4,0.6-0.6,0.9c-0.7,0.9,0.8,0.8,1.1,0.7c8.7-2.4,16.4-6.1,24.7-8.9c5.4-1.5,13.2-3.4,18.6-5c5-1.5,11.2-4.1,14.2-6.5
	l0,0c2.1-1.9,4-3.5,4-4.9C207.7,113.8,207.7,113.4,207,113.4z M106.3,85.4c0.4-0.6,1.2-0.7,1.8-0.3c0.1,0,0.1,0.1,0.1,0.1
	c0.7,0.7,10.6,8.3,11,9.8c0.6,1.8-5-3.5-9-6.4c4.9,4.8,6.5,5.5,7,6.6s-1.9,0.4-2.6,0.2c-2.7-1.9-5.2-4-7.6-6.3c-0.4,0,3.8,4,5.3,6.3
	c-0.8,0.2-1.9,0.4-2.2-0.2s-4.1-3.4-4.4-3.4s2.8,3,2.5,3.7c-0.5,0.5-1.3,0.6-1.9,0.5c-0.7-0.3-2.7-2.7-3-2.5c-0.1,0,0.3,0.8,0.7,1.3
	c0.3,0.5,0.2,1.1-0.3,1.4c-0.2,0.1-0.3,0.2-0.5,0.2c-1.1,0.1-2.1,0.1-3.2,0c-0.7-0.3-1.4-0.6-2-1.1
	C100.5,93.1,104.3,88.2,106.3,85.4z M78.1,129.7c-1.9,1.8-3.9,3.4-6.1,4.8c-0.3,0.2-0.7,0.2-0.7-0.3c0-0.1,0-1.4,0-1.9
	s0.3-1,0.8-1.2c2.3-1.4,6.4-4.6,6.2-4.8s-4.8,2.5-5.1,2.6c-2.1,1-3.1,0.4-2.9-0.4c0.3-0.9,4.9-2.8,4.9-3.8c0-0.4-3.2,1.1-5.3,1.5
	c-0.8,0.1-1.6-1.1-1.8-1.2c-0.2-0.1-0.4-0.5-0.3-0.5l2.2-1.9c0.1-0.1,0.1-0.2,0-0.2h-0.1l-2.3,0.6c-0.4,0.1-0.8,0.1-1.2-0.1
	l-0.9-0.5c-0.3,0-0.4-1,0-1c1.2-0.1,2.3-1,3.6-1c3.7-0.1,10.3,2.8,12.9,3.7c0.2,0.1,1,0.6,0.8,0.8C81.8,125.8,79,128.8,78.1,129.7z
	 M203.2,117c-3.8,3.2-17,7.7-22.5,8.5c-2.7,0.4-4.1,0.4-6.7-2c-1.9-1.8-3.2-2-4.1-4.3s-1.2-3.4-1.1-5.2c0-1.5,0.2-3.1,0.6-4.6
	c1.2-2.8,2.6-5.5,4.4-8c1.1-2.2-6,5.9-6.6,9.9c-1.3,6.9,1.5,12.4,6.9,15.1c0.2,0.1,0.3,0.4,0.2,0.6c0,0.1-0.1,0.2-0.2,0.2
	c-1,0.5-2.1,0.7-7.7,3c-0.1,0-0.1,0-0.2,0c-0.5-0.6,3-4.4,2.7-4.7c0,0-0.1-0.2-0.2-0.1c-2.8,3.5-11.7,9.5-18.6,10.6
	c-0.1-0.9,7.9-3.8,9.7-6l0,0c-1.6,0.8-3.9,1.5-5.4,2.1c-0.7,0.3-2.1,0.7-2.4,0.2s1.1-1.9,1.8-2.3c2-1.1,4-2.1,6.1-3
	c2.2-0.7,4.4-0.9,5.2-1.7c-6.3,0.4-7.9,2-11.1,3.1c-0.2,0.1-0.3-0.6,0.2-1.1c3.3-3,5.2-4.1,11.1-4.8c0.1,0,0.7-0.2,0-0.1
	c-12.4,0.9-13.8,5.1-15,9.4c-0.1,0.4-0.6,0.9-1.1,0.9c-3.3-0.1-17.9-0.3-25.1-0.4c-0.4,0-1-0.1-1-0.3c0.4-1.9,1.2-3.4,1.3-5.7
	c-1.2,3.3-2.6,6.6-4.3,9.8c-1.2,2.6-2.9,4.9-4.9,6.9c-0.7,0.6-1.1,0.1-1.4-0.2c-0.7-0.6-1.1-1.2-0.6-1.4c0.5-0.2,4.8-4.1,4.6-8
	c-1.8,4.2-3.3,6.6-5.5,6.9c-1.1,0.1-1.6-1.2-2.4-3.6c-0.1-0.2,0.1-0.5,0.3-0.6c0,0,0,0,0.1,0c2.2-0.5,3.9-2,4.8-4.1
	c-2.3,2.8-4.4,3.5-5.6,3c-0.7-0.3-1.5-2.8-1.9-5.2c-0.2-0.7-0.1-1.4,0.3-2c0.6-0.6,1.4-0.8,2.2-0.7c2.2,0.8,3,0.5,3.7-0.7
	c-0.4,0-0.5,0.6-1.7,0.6s-0.9-1-3.2-0.8c-0.5,0-0.9,0.2-1.3,0.5c-1.9,1.5-0.9,3.4-2,3.2c-5.6-1.1-18.3-6.3-25.1-9
	c-6.5-2.6-14.3-3.9-19.6-4.7c-0.3,0-0.5-0.3-0.4-0.5c0-0.2,0.1-0.3,0.2-0.4c3-1.5,6.5-2.3,10.6-3.1c-2.7,0.2-5.4,0.6-8,1.2
	c-3.5,0.8-3.6,0.9-5.8,1.4c-9.1,3-12.4,6-22.8,11.3c-4.8,2.7-9.9,5-15.2,6.9c-2.3,0.5-4.6,0.8-7,0.9c-1.1,0-0.7-2.4,0.4-2.8
	c6.5-2.3,15.9-5.9,23.4-9.5c0.1,0-0.2,0-0.3,0c-7.4,1.8-15,5.2-17.7,6c-1.5,0.4-3.1,0.7-4.6,0.9c0.5-0.3,1.2-2.7,2.8-3.3
	c6.9-2.7,19.2-7.4,19.3-7.4c0.4-0.2,0.2-0.3,0.1-0.3c-6.2,1.2-12.3,2.9-18.1,5.3c-0.5,0.2-0.8,0.2-0.8,0c-0.2-0.8,1.1-2.6,2.7-3.4
	c1.7-0.9,13.5-2.9,15.3-4.7c-7.7,1.4-10.9,1.9-14.4,2.6c0.8-1.8,1.5-2.9,2.5-3.4c2.6-1.4,5.4-2.4,8.2-3.1c0.2-0.9-7.6,1.3-7.6,0.8
	c0.3-4-0.4-5.5-1.4-6.9c-0.4-0.6,0.2-1.4,0.8-1.4c2.6,0,8.4,0.6,8.6,0.5c-3-0.8-6-1.5-9.1-2c-0.7-0.1-1.4-0.4-1.8-1
	c-1.5-1.7-2.5-3.6-3-5.8c-0.1-0.8,1.4-1.1,2.1-0.8c1.8,0.8,3.6,1.5,5.5,2c4.3,1.2,9.8,3.2,11.6,2.9c-2.8-1-7-2.5-10.9-4
	c-2.6-1.3-13.1-3.6-12.8-9.9c0-0.1,0.4,0,0.5,0c6.2,0.5,32.5,13,34.3,13.9c1.1,0.5,2.3,0.9,3.6,1.2c3.7,1.2,4.8,0.9,0.7,2
	c-7.8,2.3-13.7,0.9-12,1.4c3.8,0.6,4.3,0.8,7.4,0.6c0.6,0,1.5-0.1,2.1-0.2c5.6-0.9,2.6-1.2,8.5-1.6c4.6-0.3,11.3,0.3,18-2
	c2-0.1,11.8-2.1,21.4-2.4c3.6-0.1,18.3-1.2,22.5-1.5c2.8-0.2,39.4-1.4,43.7-1.3c6.3,0.3,20.6,2.4,20.9,3.6c0.2,0.5,0.1,1.1-0.1,1.6
	c-0.2,0.4-0.5,3.3,0,2.7c0.6-0.8,1.3-2,1.6-2.3c0.9-1,1.9-1.4,2.6-1c3.6,1.2,12.1,3.3,15.1,6.6c0.5,0.5,0.6,0.7,0.2,1
	c-1.8,1.3-4,2.4-5.8,3.7l0,0c-1.7,1.3-3.4,2.8-5,4.3c-1.2,0.8-4.9,2.1-3.8-0.2c0.4-0.7,0.9-1.2,1.5-1.7c2.5-2.1,7.1-4.3,6.9-4.7
	c-2.4,0.5-11.1,4.9-10.1,7.8c0.5,1.1,1.9,1.8,4.7,0.2c0.6-0.3,1.3-0.4,1.9-0.3c2.9,0.6,5.8,0.6,8.7,0.1c0.1,0,0.2,0.1,0.3,0.2
	S203.3,117,203.2,117L203.2,117z M60.8,99.7c2-4.8,8.1-4.1,14.5-0.5c-2.7,1-9.6,2-14.2,1C60.9,100.2,60.8,99.9,60.8,99.7L60.8,99.7z
	"/>
<ellipse class="st12" cx="179.8" cy="101.5" rx="0.6" ry="0.8"/>
<path class="st12" d="M146.1,101.5c-0.1,1.3-1.6,2.3-1.7,1.3C144.3,101.6,144.6,101.5,146.1,101.5z"/>
<circle class="st12" cx="157.7" cy="108.9" r="0.5"/>
<circle class="st12" cx="149.8" cy="108.1" r="0.8"/>
<ellipse class="st12" cx="127.3" cy="107" rx="0.9" ry="0.3"/>
<path class="st12" d="M116.8,103.5c0,0.3-0.4,0.6-0.9,0.6s-0.9-0.4-0.9-0.6s0.4-0.5,0.9-0.5S116.8,103.3,116.8,103.5z"/>
<path class="st12" d="M92.5,108.1c0,0.3-0.4,0.6-0.9,0.6s-0.9-0.4-0.9-0.6s0.4-0.5,0.9-0.5S92.5,107.8,92.5,108.1z"/>
<path class="st12" d="M105.1,101.7c0-0.2,0.3-0.6,0.8-0.6s0.9,0.4,0.9,0.6s-0.5,0.4-0.9,0.4S105.1,101.9,105.1,101.7z"/>
<path class="st12" d="M57.2,107.5c-0.2,0.3-0.7,0.5-0.9,0.4s-0.2-0.7,0-1s0.5-0.3,0.8-0.2C57.3,106.8,57.4,107.2,57.2,107.5z"/>
<path class="st8" d="M71.7,99.6c-0.3,0.4-0.9,0.7-1.3,0.5c-0.4-0.2-0.3-1-0.1-1.4c0.2-0.4,0.7-0.5,1.1-0.3
	C71.8,98.6,72,99.1,71.7,99.6L71.7,99.6z"/>
<path class="st8" d="M67.7,97.2c-0.3,0.4-0.9,0.8-1.1,0.6s-0.1-0.9,0.1-1.3c0.2-0.4,0.6-0.5,1-0.4C67.9,96.5,68,96.9,67.7,97.2z"/>
<path class="st8" d="M62.3,100.3c0.3-0.4,0.9-0.8,1.3-0.5s0.3,1,0.1,1.4s-0.7,0.5-1.1,0.3l0,0C62.2,101.2,62.1,100.7,62.3,100.3z"/>
<path class="st8" d="M92,62.8h-2.3v3.7h2.7l-0.2,1.3h-4V57.2h3.9v1.3h-2.5v3h2.5L92,62.8z"/>
<path class="st8" d="M95.8,64.8v0.6c0,0.9,0.3,1.4,1,1.4s0.9-0.6,0.9-1.5c0-1.2-0.3-1.6-1.4-2.5s-1.8-1.5-1.8-3
	c0-1.4,0.4-2.8,2.2-2.8s2.2,1.3,2.2,2.5V60h-1.4v-0.5c0-0.8-0.1-1.3-0.8-1.3s-0.6,0.6-0.6,1.4s0.2,1.2,1.1,1.9c1.6,1.2,2,1.8,2,3.6
	c0,1.5-0.5,2.9-2.4,2.9s-2.3-1.2-2.3-2.6v-0.6H95.8z"/>
<path class="st8" d="M102.4,58.5h-1.7v-1.3h4.9v1.3h-1.8v9.4h-1.4V58.5z"/>
<path class="st8" d="M107.3,67.9v-2.3h1.4v2.3H107.3z"/>
<path class="st8" d="M114.1,67.9v-9c-0.4,0.1-0.7,0.1-1.1,0.1v-1.1c0.6-0.1,1.1-0.3,1.4-0.7h1.1V68L114.1,67.9z"/>
<path class="st8" d="M119.4,65.5v0.2c0,0.7,0.3,1.1,0.8,1.1s0.9-0.5,0.9-2v-1.6c-0.3,0.5-0.8,0.7-1.4,0.7c-1.3,0-1.9-1-1.9-2.5v-1.5
	c0-1.6,0.8-2.6,2.3-2.6s2.3,0.9,2.3,2.7v4.4c0,1.9-0.2,3.5-2.3,3.5c-1.8,0-2.2-1.2-2.2-2.4v-0.1L119.4,65.5z M119.3,59.8v1.6
	c0,0.7,0.2,1.3,0.9,1.3s0.9-0.6,0.9-1.6v-1.3c0-0.8-0.3-1.3-0.9-1.3S119.3,58.9,119.3,59.8z"/>
<path class="st8" d="M124.2,65.4v-1.1c-0.1-0.8,0.3-1.6,1-2c-0.7-0.4-1-1.2-0.9-2v-0.5c0-1.7,0.8-2.5,2.3-2.5c1.3,0,2.2,0.7,2.2,2.5
	v0.4c0,1.3-0.4,1.7-0.9,2c0.7,0.4,1.1,1.2,1,2v1c0,1.9-0.8,2.7-2.4,2.7C125.2,68,124.2,67.4,124.2,65.4z M127.5,65.5v-1.3
	c0-0.9-0.3-1.2-1-1.2s-0.9,0.4-0.9,1.2v1.3c0,0.8,0.3,1.3,0.9,1.3S127.5,66.3,127.5,65.5z M125.7,59.7v0.8c0,0.7,0.3,1.1,0.9,1.1
	s0.9-0.4,0.9-1.2v-0.8c0-0.7-0.2-1.2-0.9-1.2S125.7,59.1,125.7,59.7z"/>
<path class="st8" d="M134.2,59.8L134.2,59.8c0-0.6-0.1-1.3-0.8-1.3c-0.7,0-0.9,0.5-0.9,1.7v1.5c0.3-0.5,0.9-0.8,1.4-0.8
	c1.3,0,1.8,1,1.8,2.4v1.8c0,1.6-0.5,2.8-2.4,2.8c-1.9,0-2.3-1.4-2.3-2.9v-4.7c0-1.8,0.5-3.1,2.3-3.1s2.2,1.4,2.2,2.4v0.2H134.2z
	 M134.3,65.4v-1.8c0-0.8-0.2-1.3-0.9-1.3c-0.7,0-1,0.6-1,1.5v1.6c0,0.8,0.2,1.4,0.9,1.4C134,66.8,134.3,66.3,134.3,65.4z"/>
<path class="st8" d="M81.2,159.8l-0.4,2.6h-1.3l1.5-9.2h1.8l1.6,9.2h-1.3l-0.4-2.6H81.2z M82.6,158.7c-0.3-1.7-0.5-3.3-0.6-4.2l0,0
	c0,0.7-0.3,2.7-0.6,4.2H82.6z"/>
<path class="st8" d="M86.6,162.4v-9.2h1.5l1.4,5.1c0.1,0.5,0.3,1.1,0.4,1.6l0,0c-0.1-1.2-0.1-2.5-0.1-4v-2.7H91v9.2h-1.4l-1.5-5.8
	c-0.1-0.5-0.2-0.9-0.3-1.1l0,0c0.1,1.1,0.1,2.4,0.1,4.1v2.8L86.6,162.4z"/>
<path class="st8" d="M97.6,162.4h-1c0-0.1,0-0.5-0.1-0.7c-0.2,0.6-0.8,0.9-1.4,0.9c-1.3,0-1.8-1-1.8-2.5v-4.4c0-1.5,0.6-2.5,2.1-2.5
	c1.8,0,2.1,1.3,2.1,2.3v0.3h-1.3v-0.3c0-0.6-0.1-1.2-0.8-1.2c-0.6,0-0.8,0.4-0.8,1.2v4.7c0,0.8,0.2,1.3,0.8,1.3s0.9-0.6,0.9-1.7
	v-1.4h-0.9v-1.1h2.2L97.6,162.4z"/>
<path class="st8" d="M100.2,153.3h1.3v8.1h2.3l-0.1,1.1h-3.5C100.2,162.5,100.2,153.3,100.2,153.3z"/>
<path class="st8" d="M109.2,158.1h-2.1v3.2h2.4l-0.1,1.1h-3.5v-9.2h3.4v1.1h-2.2v2.6h2.1V158.1z"/>
<path class="st8" d="M111.6,153.3h1.9c1.4,0,2.2,0.6,2.2,2.2v0.4c0,1.3-0.5,1.8-0.9,1.9c0.6,0.3,0.9,0.6,0.9,1.9
	c0,0.9,0,1.9,0.1,2.8h-1.2c-0.1-0.9-0.1-1.8-0.1-2.7c0-1.1-0.2-1.4-1-1.4h-0.4v4.2h-1.3L111.6,153.3z M112.9,157.3h0.4
	c0.8,0,1.1-0.4,1.1-1.4v-0.4c0-0.8-0.2-1.2-1.1-1.2h-0.5L112.9,157.3L112.9,157.3z"/>
<path class="st8" d="M119.1,159.8v0.6c0,0.8,0.3,1.2,0.8,1.2s0.8-0.5,0.8-1.3c0-1-0.2-1.4-1.2-2.1s-1.5-1.3-1.5-2.6
	c0-1.2,0.4-2.4,2-2.4s1.9,1.1,1.9,2.2v0.4h-1.3v-0.4c0-0.7-0.1-1.1-0.7-1.1s-0.7,0.5-0.7,1.1s0.1,1.1,1,1.7c1.4,1,1.8,1.6,1.8,3.1
	c0,1.3-0.4,2.5-2.1,2.5s-2.1-1-2.1-2.2v-0.7H119.1z"/>
<path class="st8" d="M124.2,162.4v-2h1.3v2H124.2z"/>
<path class="st8" d="M132.1,155.6v4.4c0,1.7-0.7,2.5-2.2,2.5s-2.1-0.9-2.1-2.5v-4.4c0-1.7,0.8-2.5,2.2-2.5S132.1,154,132.1,155.6z
	 M129.1,155.5v4.7c0,0.9,0.3,1.3,0.9,1.3c0.6,0,0.9-0.4,0.9-1.3v-4.7c0-0.8-0.3-1.3-0.9-1.3C129.4,154.2,129,154.7,129.1,155.5
	L129.1,155.5z"/>
<path class="st8" d="M134.6,153.3h1.9c1.4,0,2.2,0.6,2.2,2.2v0.4c0,1.3-0.5,1.8-1,1.9c0.6,0.3,0.9,0.6,0.9,1.9c0,0.9,0,1.9,0.1,2.8
	h-1.2c-0.1-0.9-0.1-1.8-0.1-2.7c0-1.1-0.2-1.4-1-1.4H136v4.2h-1.3L134.6,153.3z M135.9,157.3h0.4c0.8,0,1.1-0.4,1.1-1.4v-0.4
	c0-0.8-0.2-1.2-1.1-1.2h-0.5L135.9,157.3z"/>
<path class="st8" d="M145.2,162.4h-1c0-0.1-0.1-0.5-0.1-0.7c-0.2,0.6-0.8,0.9-1.4,0.9c-1.3,0-1.8-1-1.8-2.5v-4.4
	c0-1.5,0.6-2.5,2.1-2.5c1.8,0,2.1,1.3,2.1,2.3v0.3h-1.3v-0.3c0-0.6-0.1-1.2-0.8-1.2c-0.6,0-0.8,0.4-0.8,1.2v4.7
	c0,0.8,0.2,1.3,0.8,1.3s0.9-0.6,0.9-1.7v-1.4H143v-1.1h2.2V162.4z"/>
<path class="st8" d="M34.9,142.6l-0.9-2.1l1.6-0.7l2.6,5.9l-1.6,0.7l-0.9-2.1l-11.2,4.9l-0.8-1.7L34.9,142.6z"/>
<path class="st8" d="M38.4,146.2l0.9,1.7l-4.9,2.7l1.2,2.3l5-2.7l0.9,1.7l-12.3,6.8l-0.9-1.6l5.8-3.2l-1.2-2.2l-5.8,3.2l-0.9-1.7
	L38.4,146.2z"/>
<path class="st8" d="M35,160.1l-3.7,1.8l-1.1-1.6l12.9-6l1.5,2.2l-10.2,9.9l-1.1-1.6l3-2.8L35,160.1z M37.6,160.8
	c2-1.8,3.7-3.4,4.9-4.4l0,0c-1,0.6-3.8,1.9-5.8,3L37.6,160.8z"/>
<path class="st8" d="M44.5,169.9c1.9-1.6,4.1-3.5,5.3-4.4l0,0c-2,1.3-7.1,4.5-10.6,6.6l-1.2-1.4c2.4-2.8,6.6-7.5,8.3-9.4l0,0
	c-1.2,1.1-3.6,3.2-5.4,4.8l-3.9,3.4l-1.2-1.4l10.6-9.1l1.8,2.1c-2.4,3-5.4,6.4-6.7,7.8l0,0c1.6-1.1,5.7-3.5,8.9-5.3l1.8,2.1
	l-10.8,9.1l-1.2-1.4L44.5,169.9z"/>
<path class="st8" d="M51.7,175.5l-2.3-2.1l-3.3,3.5l2.6,2.4l-1.4,1.1l-3.8-3.6l9.7-10.2l3.8,3.5l-1.2,1.3l-2.4-2.3l-2.7,2.9l2.3,2.1
	L51.7,175.5z"/>
<path class="st8" d="M52.8,179.7l-0.5,0.6c-0.7,0.9-0.8,1.6-0.1,2.2s1.4,0.2,2.2-0.8c1-1.2,1.1-1.9,0.6-3.7s-0.6-2.9,0.7-4.6
	c1.1-1.4,2.7-2.5,4.6-1s1.2,3.1,0.2,4.4l-0.4,0.5l-1.5-1.2l0.4-0.5c0.7-0.8,0.9-1.5,0.3-2s-1.3-0.1-1.9,0.7s-0.8,1.4-0.4,2.9
	c0.6,2.4,0.6,3.5-0.9,5.4c-1.2,1.5-2.9,2.6-4.8,1s-1.4-3.2-0.3-4.6l0.5-0.6L52.8,179.7z"/>
<path class="st8" d="M65.7,177l2.3,1.5c1.8,1.1,2.3,2.5,1,4.6l-0.3,0.5c-1,1.8-2,1.9-2.7,1.8c0.5,0.8,0.6,1.5-0.4,3.1
	c-0.8,1.2-1.5,2.5-2.2,3.8l-1.5-1c0.6-1.3,1.3-2.5,2.1-3.6c0.9-1.5,0.9-2-0.2-2.7l-0.6-0.3l-3.4,5.4l-1.6-1L65.7,177z M64.1,183.1
	l0.6,0.4c1,0.6,1.7,0.4,2.5-0.9l0.3-0.5c0.6-1,0.7-1.7-0.4-2.4l-0.6-0.4L64.1,183.1z"/>
<path class="st8" d="M73.8,181.7l-6.6,12.4l-1.7-0.9l6.6-12.4L73.8,181.7z"/>
<path class="st8" d="M76.5,183.1l-1.7,5.8c-0.6,1.9-1.1,4-1.6,5.4l0,0c0.7-1.3,2-3.1,3-4.8l3.2-5.1l1.8,0.8l-8,11.8l-2.1-0.9
	l3.6-13.8L76.5,183.1z"/>
<path class="st8" d="M84.2,194.1l-2.9-1l-1.6,4.6l3.3,1.2l-0.8,1.6l-4.9-1.8l4.7-13.2l4.9,1.7l-0.6,1.6l-3.1-1.1l-1.3,3.8l2.9,1.1
	L84.2,194.1z"/>
<path class="st8" d="M87.9,187.5l2.7,0.7c2,0.6,2.9,1.7,2.3,4.1l-0.1,0.5c-0.5,2-1.5,2.4-2.1,2.5c0.7,0.6,1,1.3,0.5,3.1
	c-0.4,1.4-0.7,2.8-1,4.2l-1.8-0.5c0.2-1.4,0.6-2.8,1-4.1c0.4-1.7,0.3-2.2-0.9-2.5l-0.6-0.2l-1.7,6.2l-1.8-0.5L87.9,187.5z
	 M88.1,193.8l0.6,0.2c1.2,0.3,1.7-0.1,2.1-1.6l0.1-0.5c0.3-1.1,0.2-1.9-1.1-2.2l-0.7-0.2L88.1,193.8z"/>
<path class="st8" d="M98,200l-1.1,3.9l-1.9-0.3l4.3-13.6l2.6,0.4l0.4,14.2l-2-0.3v-4.1L98,200z M100.3,198.5c0-2.7,0-5.1,0.1-6.5
	h-0.1c-0.2,1.1-1.1,4.1-1.7,6.3L100.3,198.5z"/>
<path class="st8" d="M104.2,204.8l0.8-14l2.2,0.1l1.6,7.9c0.2,0.8,0.3,1.7,0.4,2.5l0,0c0-1.8,0.1-3.8,0.2-6.1l0.2-4.2l1.7,0.1
	l-0.7,14l-2.1-0.1l-1.8-9c-0.2-0.7-0.2-1.3-0.3-1.8l0,0c0,1.7-0.1,3.7-0.2,6.3l-0.2,4.3H104.2z"/>
<path class="st8" d="M119.5,205H118c0-0.2-0.1-0.8-0.1-1.1c-0.3,0.9-1.1,1.4-2,1.4c-2,0.1-2.7-1.4-2.8-3.7l-0.2-6.8
	c-0.1-2.3,0.8-3.9,3.1-4c2.8-0.1,3.2,1.9,3.2,3.5v0.4l-1.9,0.1v-0.5c0-0.9-0.2-1.8-1.3-1.8c-0.9,0-1.2,0.6-1.2,1.9l0.3,7.2
	c0,1.2,0.4,1.9,1.3,1.9c1.1,0,1.3-1,1.2-2.6l-0.1-2.1h-1.4v-1.6l3.3-0.1L119.5,205z"/>
<path class="st8" d="M120.6,190.8l1.9-0.2l1.4,12.3l3.5-0.4v1.7l-5.2,0.6L120.6,190.8z"/>
<path class="st8" d="M132.9,196.5l-3.1,0.6l0.9,4.8l3.5-0.6l0.1,1.7l-5.1,1l-2.6-13.8l5.1-1l0.3,1.7l-3.2,0.6l0.7,3.9l3.1-0.6
	L132.9,196.5z"/>
<path class="st8" d="M132.8,188.9l2.7-0.7c2-0.6,3.4,0,4,2.4l0.1,0.5c0.5,2,0,2.8-0.6,3.2c0.9,0.1,1.5,0.6,2,2.4
	c0.3,1.4,0.8,2.8,1.3,4.2l-1.7,0.5c-0.5-1.3-0.9-2.6-1.2-4c-0.5-1.7-0.8-2-2.1-1.7l-0.6,0.2l1.7,6.2l-1.8,0.5L132.8,188.9z
	 M136.2,194.2l0.6-0.2c1.2-0.3,1.4-1,1-2.4l-0.1-0.5c-0.3-1.1-0.8-1.7-2-1.4l-0.7,0.2L136.2,194.2z"/>
<path class="st8" d="M144.6,195.8l0.3,0.8c0.4,1.1,1,1.6,1.8,1.3s0.9-1.1,0.5-2.3c-0.5-1.5-1-1.9-2.9-2.4s-2.8-1-3.5-3
	c-0.6-1.7-0.7-3.6,1.5-4.4s3.3,0.6,3.8,2.1l0.2,0.6l-1.8,0.6l-0.2-0.6c-0.4-1-0.8-1.6-1.5-1.3s-0.7,1-0.4,2s0.8,1.4,2.3,1.9
	c2.4,0.7,3.3,1.3,4.1,3.5c0.7,1.9,0.7,3.8-1.6,4.7s-3.4-0.4-4.1-2.1l-0.3-0.8L144.6,195.8z"/>
<path class="st8" d="M155,191.5l1.3,3.9l-1.7,0.9l-4.3-13.6l2.4-1.2l8.4,11.4l-1.8,0.9l-2.4-3.3L155,191.5z M156,189
	c-1.5-2.2-2.9-4.1-3.7-5.4h-0.1c0.5,1,1.4,4,2.2,6.1L156,189z"/>
<path class="st8" d="M162.1,187.6l0.4,0.7c0.6,1,1.3,1.3,2,0.9s0.6-1.3,0-2.3c-0.8-1.3-1.4-1.6-3.3-1.8s-3-0.4-4.1-2.2
	c-1-1.6-1.4-3.4,0.6-4.6s3.3-0.1,4.2,1.3l0.4,0.6l-1.6,1l-0.3-0.6c-0.6-0.9-1.1-1.4-1.8-0.9s-0.5,1.1,0,2s1,1.3,2.6,1.4
	c2.5,0.2,3.5,0.6,4.8,2.6c1,1.7,1.5,3.6-0.7,4.9s-3.4,0.3-4.4-1.3l-0.4-0.7L162.1,187.6z"/>
<path class="st8" d="M168.6,183.2l0.5,0.7c0.7,0.9,1.4,1.2,2.1,0.7s0.5-1.4-0.2-2.3c-0.9-1.2-1.5-1.5-3.4-1.5s-3-0.2-4.2-1.8
	c-1.1-1.5-1.7-3.2,0.2-4.6s3.3-0.4,4.3,0.9l0.4,0.6l-1.5,1.1l-0.4-0.5c-0.6-0.9-1.2-1.3-1.8-0.8s-0.4,1.2,0.2,2s1.1,1.2,2.7,1.2
	c2.5,0,3.6,0.3,5,2.2c1.2,1.6,1.8,3.5-0.2,4.9s-3.4,0.6-4.5-0.9l-0.5-0.6L168.6,183.2z"/>
<path class="st8" d="M174.1,170.4l4.5,5c1.7,1.9,1.8,3.6,0.1,5.1s-3.2,1.1-4.9-0.7l-4.5-5.1c-1.7-1.9-1.6-3.6-0.1-5
	S172.5,168.6,174.1,170.4z M170.6,173.4l4.8,5.3c0.9,1,1.6,1.1,2.3,0.6s0.6-1.3-0.3-2.4l-4.7-5.3c-0.9-1-1.6-1.2-2.3-0.6
	S169.7,172.4,170.6,173.4L170.6,173.4z"/>
<path class="st8" d="M183.9,169.3l0.4,0.4c1.2,1.1,2.6,2.8,0.7,4.9c-1.7,1.8-3.3,1.1-4.8-0.4l-5.2-4.9c-1.6-1.5-1.9-3.1-0.5-4.7
	c1.7-1.8,3.3-1,4.7,0.3l0.4,0.4l-1.3,1.4l-0.6-0.5c-0.7-0.7-1.4-1-2-0.4s-0.3,1.3,0.5,2l5.4,5c0.8,0.8,1.6,1.1,2.2,0.5
	s0.2-1.3-0.6-2.1l-0.5-0.5L183.9,169.3z"/>
<path class="st8" d="M178.6,160.1l10.9,8.9l-1.2,1.5l-10.9-8.9L178.6,160.1z"/>
<path class="st8" d="M188.8,163.2l3,2.8l-1.1,1.6l-10.1-10l1.5-2.2l12.8,6.2l-1.2,1.6l-3.7-1.8L188.8,163.2z M188.5,160.6
	c-2.4-1.2-4.5-2.3-5.8-3l0,0c0.9,0.7,3.1,2.9,4.8,4.4L188.5,160.6z"/>
<path class="st8" d="M185.6,153.2l-1.2,1.9l-1.5-0.9l3.3-5.5l1.5,0.9l-1.2,2l10.5,6.3l-1,1.6L185.6,153.2z"/>
<path class="st8" d="M187.4,146.3l12.5,6.4l-0.9,1.7l-12.5-6.4L187.4,146.3z"/>
<path class="st8" d="M194,140.4l6.2,2.6c2.4,1,3.1,2.5,2.2,4.6c-0.9,2.1-2.5,2.4-4.8,1.4l-6.3-2.7c-2.4-1-3-2.6-2.2-4.5
	C189.9,139.9,191.7,139.5,194,140.4z M192.1,144.6l6.6,2.8c1.2,0.5,1.9,0.3,2.3-0.5s0-1.4-1.3-2l-6.6-2.8c-1.2-0.5-1.9-0.4-2.3,0.5
	C190.4,143.5,190.8,144.1,192.1,144.6z"/>
<path class="st8" d="M204.5,142l-13.4-4.1l0.6-2.1l8,0.3c0.9,0,1.7,0.1,2.6,0.2l0,0c-1.8-0.4-3.6-1-5.8-1.7l-4-1.3l0.5-1.7l13.4,4.1
	l-0.6,2l-9.1-0.4c-0.8,0-1.4-0.1-1.8-0.1l0,0c1.6,0.4,3.6,1,6,1.8l4.1,1.3L204.5,142z"/>
</svg>
